<svg width="200" height="60" viewBox="0 0 200 60" xmlns="http://www.w3.org/2000/svg">

  <defs>

    <linearGradient id="shieldGrad" x1="0%" y1="0%" x2="100%" y2="100%">

      <stop offset="0%" style="stop-color:#6366F1"/>

      <stop offset="100%" style="stop-color:#8B5CF6"/>

    </linearGradient>

    <linearGradient id="textGrad" x1="0%" y1="0%" x2="100%" y2="0%">

      <stop offset="0%" style="stop-color:#6366F1"/>

      <stop offset="100%" style="stop-color:#8B5CF6"/>

    </linearGradient>

  </defs>

  <!-- Shield -->

  <path d="M18 8 L30 4 L42 8 L42 22 Q42 34 30 40 Q18 34 18 22 Z" fill="url(#shieldGrad)"/>

  <!-- Circuit node inside shield -->

  <circle cx="30" cy="20" r="3" fill="white" opacity="0.9"/>

  <line x1="30" y1="17" x2="30" y2="12" stroke="white" stroke-width="1.5" opacity="0.7"/>

  <line x1="30" y1="23" x2="30" y2="28" stroke="white" stroke-width="1.5" opacity="0.7"/>

  <line x1="27" y1="20" x2="22" y2="20" stroke="white" stroke-width="1.5" opacity="0.7"/>

  <line x1="33" y1="20" x2="38" y2="20" stroke="white" stroke-width="1.5" opacity="0.7"/>

  <circle cx="30" cy="12" r="1.5" fill="white" opacity="0.5"/>

  <circle cx="30" cy="28" r="1.5" fill="white" opacity="0.5"/>

  <circle cx="22" cy="20" r="1.5" fill="white" opacity="0.5"/>

  <circle cx="38" cy="20" r="1.5" fill="white" opacity="0.5"/>

  <!-- Wordmark -->

  <text x="52" y="28" font-family="'Inter', system-ui, sans-serif" font-weight="800" font-size="20" fill="url(#textGrad)" letter-spacing="-0.5">AI</text>

  <text x="76" y="28" font-family="'Inter', system-ui, sans-serif" font-weight="400" font-size="20" fill="#0F172A" letter-spacing="-0.3"> Guard</text>

  <text x="52" y="42" font-family="'Inter', system-ui, sans-serif" font-weight="400" font-size="8" fill="#94A3B8" letter-spacing="2">AGENT GOVERNANCE</text>

</svg>